#!OML:ASF F:\VICON\USERDATA\INSTALL\rory3\rory3.ASF
:FULLY-SPECIFIED
:DEGREES
4826
root -0.954323 14.7665 -17.9351 -538.394 -26.2344 528.535
lowerback 14.9982 1.41603 -12.3589
upperback -0.812365 -0.708813 -1.79281
thorax -9.2899 0.133742 5.19979
lowerneck -10.3538 -8.07672 -5.08183
upperneck 19.3649 -12.4559 6.73397
head 8.47036 -5.91685 1.68659
rclavicle -1.36447e-014 1.82882e-014
rhumerus 47.9055 28.8915 -43.2246
rradius 62.6013
rwrist -62.9933
rhand -5.04636 8.37349
rfingers 7.12502
rthumb 20.7489 -20.5372
lclavicle -1.36447e-014 1.82882e-014
lhumerus 8.1514 -39.5716 78.77
lradius 115.744
lwrist -18.4206
lhand -18.7804 12.4076
lfingers 7.12502
lthumb 7.5171 42.254
rfemur -39.9267 -11.207 6.47881
rtibia 66.9735
rfoot -19.0257 -2.96794
rtoes -9.18538
lfemur 6.76973 2.2276 -10.4247
ltibia 25.7412
lfoot -28.5788 -1.56203
ltoes -39.8411
4827
root -0.967904 14.7664 -17.9464 -538.375 -26.1972 528.26
lowerback 14.8449 1.40655 -12.5756
upperback -0.685486 -0.741875 -1.85652
thorax -9.05548 0.102707 5.25794
lowerneck -10.4957 -8.0816 -5.10552
upperneck 19.3558 -12.4446 6.74247
head 8.49451 -5.9051 1.68849
rclavicle -4.65218e-014 -2.90226e-014
rhumerus 47.9584 28.7719 -43.0443
rradius 62.7233
rwrist -62.9291
rhand -5.49335 8.32073
rfingers 7.12502
rthumb 20.3193 -20.6363
lclavicle -4.65218e-014 -2.90226e-014
lhumerus 8.15828 -39.5833 78.8318
lradius 115.701
lwrist -18.4147
lhand -18.837 12.5736
lfingers 7.12502
lthumb 7.46246 42.422
rfemur -39.7794 -11.4463 6.12809
rtibia 67.0354
rfoot -19.1455 -2.76387
rtoes -9.34279
lfemur 7.06501 2.18723 -10.7706
ltibia 25.5369
lfoot -28.5464 -1.33591
ltoes -40.1082
4828
root -0.982015 14.7661 -17.9521 -538.327 -26.1883 528.069
lowerback 14.9798 1.37849 -12.6085
upperback -0.764441 -0.82499 -1.93439
thorax -9.20785 0.0730094 5.21022
lowerneck -10.5198 -8.07942 -5.09527
upperneck 19.4695 -12.4595 6.71976
head 8.53602 -5.91417 1.67439
rclavicle -2.64912e-014 -1.31198e-014
rhumerus 47.7166 28.8203 -43.2159
rradius 62.6778
rwrist -62.3361
rhand -5.40079 8.51254
rfingers 7.12502
rthumb 20.4083 -20.435
lclavicle -2.64912e-014 -1.31198e-014
lhumerus 7.94612 -39.6058 78.9742
lradius 115.537
lwrist -18.1704
lhand -19.3471 11.3794
lfingers 7.12502
lthumb 6.97012 41.2446
rfemur -39.6885 -11.6847 5.85135
rtibia 67.0727
rfoot -19.2091 -2.46422
rtoes -8.97562
lfemur 7.2421 2.07906 -11.0658
ltibia 25.4225
lfoot -28.5166 -0.907498
ltoes -40.739
4829
root -0.994426 14.7651 -17.9529 -538.349 -26.0798 528.225
lowerback 15.2649 1.34941 -12.3399
upperback -1.03722 -0.87178 -1.92671
thorax -9.66966 0.0810741 5.08032
lowerneck -10.3067 -8.08865 -5.20736
upperneck 19.6275 -12.5144 6.75338
head 8.56377 -5.95822 1.70201
rclavicle 1.45889e-014 -4.96962e-015
rhumerus 47.4169 28.9692 -43.5073
rradius 62.4672
rwrist -62.2589
rhand -4.69784 8.63137
rfingers 7.12502
rthumb 21.0837 -20.2424
lclavicle 1.45889e-014 -4.96962e-015
lhumerus 7.36604 -39.6457 79.3771
lradius 115.572
lwrist -17.9531
lhand -19.1458 10.3997
lfingers 7.12502
lthumb 7.16442 40.2584
rfemur -39.7314 -11.7494 5.98086
rtibia 67.0642
rfoot -19.0982 -2.43725
rtoes -9.511
lfemur 7.29034 2.0368 -11.0106
ltibia 25.4216
lfoot -28.5196 -0.896324
ltoes -40.4176
4830
root -1.00087 14.7625 -17.9527 -538.305 -25.8693 528.367
lowerback 15.13 1.3812 -12.3876
upperback -1.07709 -0.792534 -1.7634
thorax -9.64754 0.131876 5.26679
lowerneck -10.2581 -8.13211 -5.30536
upperneck 19.5533 -12.5103 6.61773
head 8.52642 -5.97427 1.67728
rclavicle 3.42562e-014 -2.38542e-015
rhumerus 47.4875 28.8926 -43.4063
rradius 62.3208
rwrist -62.2735
rhand -4.19185 8.59574
rfingers 7.12502
rthumb 21.5697 -20.2231
lclavicle 3.42562e-014 -2.38542e-015
lhumerus 7.45593 -39.5422 79.6587
lradius 115.617
lwrist -17.7176
lhand -18.6348 10.3719
lfingers 7.12502
lthumb 7.65762 40.2132
rfemur -39.9406 -11.6256 6.16697
rtibia 67.0593
rfoot -18.9545 -2.58802
rtoes -11.0288
lfemur 7.23214 2.10225 -10.9295
ltibia 25.4561
lfoot -28.5297 -1.19212
ltoes -39.9241
4831
root -1.00334 14.7661 -17.954 -538.3 -25.7235 528.451
lowerback 14.6894 1.44064 -12.9955
upperback -0.837108 -0.672801 -1.30415
thorax -9.13943 0.198803 6.08322
lowerneck -10.3757 -8.16039 -5.42481
upperneck 19.296 -12.3639 6.24152
head 8.43312 -5.93142 1.5921
rclavicle 6.1499e-016 -1.07344e-014
rhumerus 48.0029 28.7399 -42.5976
rradius 62.385
rwrist -62.3063
rhand -4.2706 8.48895
rfingers 7.12502
rthumb 21.4941 -20.3385
lclavicle 6.1499e-016 -1.07344e-014
lhumerus 8.06822 -39.2076 80.0165
lradius 115.385
lwrist -17.8397
lhand -18.7491 10.6318
lfingers 7.12502
lthumb 7.5473 40.4771
rfemur -40.0258 -11.4597 6.28043
rtibia 67.0261
rfoot -19.0097 -2.49355
rtoes -10.6182
lfemur 7.17141 2.13992 -10.8702
ltibia 25.5203
lfoot -28.5622 -1.35421
ltoes -39.8929
